<?xml version="1.0" encoding="UTF-8" standalone="no"?><!DOCTYPE svg PUBLIC "-//W3C//DTD SVG 1.1//EN" "http://www.w3.org/Graphics/SVG/1.1/DTD/svg11.dtd"><svg width="100px" height="100px" version="1.1" xmlns="http://www.w3.org/2000/svg" xmlns:xlink="http://www.w3.org/1999/xlink" xml:space="preserve" xmlns:serif="http://www.serif.com/" style="fill-rule:evenodd;clip-rule:evenodd;stroke-linejoin:round;stroke-miterlimit:2;"><path d="M26.191,99.994c-5.484,-0.042 -8.404,-0.331 -10.646,-1.626c-1.852,-1.069 -3.389,-2.607 -4.458,-4.458c-1.426,-2.47 -1.632,-5.761 -1.632,-12.393l0,-40.971c0,-10.753 4.272,-21.066 11.876,-28.67c7.604,-7.604 17.917,-11.876 28.67,-11.876c10.753,0 21.066,4.272 28.67,11.876c7.604,7.604 11.875,17.916 11.875,28.67l0,40.972c0,6.632 -0.206,9.923 -1.632,12.393c-1.069,1.852 -2.607,3.389 -4.458,4.458c-2.47,1.426 -5.761,1.632 -12.393,1.632l-44.124,0c-0.498,0 -0.978,-0.001 -1.44,-0.004c-0.045,0.002 -0.089,0.003 -0.135,0.003c-0.058,0 -0.115,-0.002 -0.172,-0.005Zm58.793,-62.177c-0.648,-8.309 -4.237,-16.15 -10.172,-22.085c-6.581,-6.581 -15.506,-10.278 -24.813,-10.278c-9.307,0 -18.232,3.697 -24.813,10.278c-6.581,6.581 -10.278,15.506 -10.278,24.813l0,40.971c0,5.15 -0.206,7.747 0.901,9.665c0.59,1.023 1.44,1.872 2.463,2.462c1.29,0.745 2.888,0.896 5.363,0.914l0,-6.741c0,-2.939 0.033,-4.994 0.362,-6.497c0.326,-1.492 0.916,-2.595 1.822,-3.501c0.906,-0.906 2.009,-1.496 3.501,-1.822c1.504,-0.329 3.558,-0.362 6.497,-0.362l6.727,0l-0,-6.727c0,-2.939 0.033,-4.994 0.362,-6.497c0.326,-1.492 0.916,-2.595 1.822,-3.501c0.906,-0.906 2.009,-1.496 3.501,-1.822c1.504,-0.329 3.558,-0.362 6.497,-0.362l6.727,0l0,-6.727c0,-2.939 0.033,-4.993 0.362,-6.497c0.326,-1.492 0.916,-2.595 1.822,-3.501c0.906,-0.906 2.009,-1.496 3.501,-1.822c1.504,-0.329 3.558,-0.362 6.497,-0.362l11.348,0Zm0.106,18.909l0,-13.455l-11.455,0c-2.073,0 -3.627,-0.012 -4.823,0.149c-0.571,0.077 -1.01,0.13 -1.318,0.437c-0.308,0.308 -0.361,0.746 -0.438,1.318c-0.161,1.197 -0.149,2.751 -0.149,4.823l0,6.727l18.182,0Zm0,18.909l0,-13.454l-30.364,0c-2.073,0 -3.627,-0.012 -4.823,0.149c-0.571,0.077 -1.01,0.13 -1.318,0.437c-0.307,0.307 -0.361,0.746 -0.437,1.318c-0.161,1.197 -0.149,2.751 -0.149,4.823l0,6.727l37.091,0Zm-56,18.91l42.971,0c5.15,0 7.747,0.206 9.665,-0.901c1.023,-0.591 1.872,-1.44 2.463,-2.462c1.108,-1.918 0.901,-4.515 0.901,-9.665l0,-0.427l-49.273,0c-2.072,0 -3.627,-0.012 -4.823,0.149c-0.571,0.077 -1.01,0.13 -1.318,0.438c-0.307,0.307 -0.361,0.746 -0.438,1.318c-0.161,1.197 -0.149,2.751 -0.149,4.823l0,6.728Z" style="fill:#fcc358;"/></svg>