<?xml version="1.0" encoding="UTF-8" standalone="no"?><!DOCTYPE svg PUBLIC "-//W3C//DTD SVG 1.1//EN" "http://www.w3.org/Graphics/SVG/1.1/DTD/svg11.dtd"><svg width="100px" height="100px" version="1.1" xmlns="http://www.w3.org/2000/svg" xmlns:xlink="http://www.w3.org/1999/xlink" xml:space="preserve" xmlns:serif="http://www.serif.com/" style="fill-rule:evenodd;clip-rule:evenodd;stroke-linejoin:round;stroke-miterlimit:2;"><path d="M81.645,29.714l2.752,0.916c5.595,1.865 8.265,3.043 9.864,5.264c1.599,2.221 1.872,5.127 1.872,11.02l0,27.36c0,3.956 -0.023,6.726 -0.399,8.768c-0.331,1.803 -0.93,3.159 -1.852,4.284c-0.761,0.926 -1.689,1.719 -2.734,2.315c-1.259,0.722 -2.693,1.088 -4.525,1.118c-2.075,0.034 -4.811,-0.399 -8.715,-1.046c-5.733,-0.958 -8.596,-1.475 -11.442,-1.238c-0.939,0.077 -1.868,0.216 -2.784,0.415c-2.785,0.612 -5.395,1.961 -10.643,4.587c-7.63,3.815 -11.472,5.657 -15.532,6.242c-1.285,0.186 -2.581,0.279 -3.891,0.279l-0.003,-0c-4.106,-0.01 -8.132,-1.28 -16.155,-3.951l-1.854,-0.618c-5.595,-1.865 -8.265,-3.043 -9.864,-5.264c-1.599,-2.221 -1.872,-5.133 -1.872,-11.02l0,-23.801c0,-5.061 0.032,-8.601 0.568,-11.115c0.476,-2.233 1.338,-3.821 2.66,-5.029c0.565,-0.517 1.189,-0.968 1.86,-1.344c1.566,-0.872 3.347,-1.189 5.616,-0.934c1.272,0.143 2.746,0.484 4.498,0.989c-0.473,-2.597 -0.719,-5.187 -0.719,-7.711c0,-16.641 14.131,-30.201 31.649,-30.201c17.347,0 31.373,13.297 31.645,29.714Zm-61.056,14.276c-2.215,-0.724 -4.025,-1.271 -5.55,-1.569c-1.47,-0.287 -2.557,-0.387 -3.47,0.12c-0.307,0.172 -0.593,0.379 -0.854,0.618c-0.771,0.704 -1.019,1.766 -1.212,3.252c-0.284,2.186 -0.272,5.078 -0.272,8.934l0,23.801c0,2.386 -0.008,4.177 0.154,5.597c0.109,0.957 0.271,1.682 0.707,2.288c0.436,0.606 1.071,0.987 1.943,1.393c1.295,0.603 2.998,1.161 5.264,1.917l1.853,0.618c7.202,2.398 10.785,3.667 14.47,3.677c1.048,-0 2.087,-0.075 3.119,-0.224c3.646,-0.525 7.045,-2.304 13.898,-5.731c5.846,-2.926 8.79,-4.348 11.896,-5.03c1.148,-0.25 2.312,-0.424 3.488,-0.521c3.171,-0.265 6.373,0.223 12.766,1.292c2.945,0.488 5.154,0.864 6.896,0.956c1.183,0.062 2.063,0.03 2.798,-0.392l0.004,-0.002c0.478,-0.272 0.9,-0.637 1.248,-1.06c0.534,-0.652 0.711,-1.515 0.845,-2.692c0.197,-1.733 0.188,-3.973 0.188,-6.957l0,-27.36c0,-2.388 0.008,-4.18 -0.154,-5.599c-0.109,-0.956 -0.271,-1.68 -0.707,-2.286c-0.436,-0.606 -1.071,-0.987 -1.943,-1.393c-1.295,-0.603 -2.998,-1.161 -5.264,-1.917l-1.367,-0.455c-1.802,14.736 -11.204,30.364 -24.969,36.367l-0.003,0.001c-2.008,0.87 -4.174,1.319 -6.362,1.319c-2.189,0 -4.355,-0.449 -6.366,-1.32c-11.054,-4.817 -19.295,-15.849 -23.045,-27.641Zm4.519,-3.53c2.94,11.08 10.366,21.762 20.664,26.251c1.335,0.578 2.773,0.876 4.228,0.876c1.454,-0 2.893,-0.298 4.227,-0.876c13.495,-5.887 22.058,-22.401 22.058,-36.511c0,-13.756 -11.804,-24.837 -26.285,-24.837c-14.481,-0 -26.285,11.081 -26.285,24.837c0,3.122 0.419,6.362 1.218,9.579c0.12,0.04 0.24,0.08 0.362,0.121l-0.187,0.56Zm24.892,3.527c-6.814,0 -12.338,-5.524 -12.338,-12.338c0,-6.814 5.524,-12.338 12.338,-12.338c6.814,0 12.338,5.524 12.338,12.338c0,6.814 -5.524,12.338 -12.338,12.338Zm0,-5.364c3.851,0 6.974,-3.122 6.974,-6.974c0,-3.851 -3.122,-6.974 -6.974,-6.974c-3.851,0 -6.974,3.122 -6.974,6.974c0,3.851 3.122,6.974 6.974,6.974Z" style="fill:#d2451d;"/></svg>