<?xml version="1.0" encoding="UTF-8" standalone="no"?>
<!DOCTYPE svg PUBLIC "-//W3C//DTD SVG 1.1//EN" "http://www.w3.org/Graphics/SVG/1.1/DTD/svg11.dtd">
<svg width="100px" height="100px" version="1.1" xmlns="http://www.w3.org/2000/svg" xmlns:xlink="http://www.w3.org/1999/xlink" xml:space="preserve" xmlns:serif="http://www.serif.com/" style="fill-rule:evenodd;clip-rule:evenodd;stroke-linejoin:round;stroke-miterlimit:2;">
    <g>
        <path d="M50,0C77.596,0 100,22.404 100,50C100,77.596 77.596,100 50,100C22.404,100 0,77.596 0,50C0,22.404 22.404,0 50,0ZM50,3.448C24.307,3.448 3.448,24.307 3.448,50C3.448,75.693 24.307,96.552 50,96.552C75.693,96.552 96.552,75.693 96.552,50C96.552,24.307 75.693,3.448 50,3.448Z" style="fill:#b0b694;"/>
        <path d="M50,18.966C67.128,18.966 81.034,32.872 81.034,50C81.034,67.128 67.128,81.034 50,81.034C32.872,81.034 18.966,67.128 18.966,50C18.966,32.872 32.872,18.966 50,18.966ZM50,22.414C34.775,22.414 22.414,34.775 22.414,50C22.414,65.225 34.775,77.586 50,77.586C65.225,77.586 77.586,65.225 77.586,50C77.586,34.775 65.225,22.414 50,22.414Z" style="fill:#b0b694;"/>
        <path d="M50,32.759C59.516,32.759 67.241,40.484 67.241,50C67.241,59.516 59.516,67.241 50,67.241C40.484,67.241 32.759,59.516 32.759,50C32.759,40.484 40.484,32.759 50,32.759ZM50,36.207C42.387,36.207 36.207,42.387 36.207,50C36.207,57.613 42.387,63.793 50,63.793C57.613,63.793 63.793,57.613 63.793,50C63.793,42.387 57.613,36.207 50,36.207Z" style="fill:#b0b694;"/>
        <circle cx="50" cy="50" r="5.172" style="fill:#b0b694;"/>
    </g>
</svg>
