<?xml version="1.0" encoding="utf-8"?>
<!-- Generator: Adobe Illustrator 25.1.0, SVG Export Plug-In . SVG Version: 6.00 Build 0)  -->
<svg version="1.1" id="Layer_1" xmlns="http://www.w3.org/2000/svg" xmlns:xlink="http://www.w3.org/1999/xlink" x="0px" y="0px"
	 width="100px" height="100px" viewBox="0 0 100 100" style="enable-background:new 0 0 100 100;" xml:space="preserve">
<g>
	<defs>
		<rect id="SVGID_4_" y="2.6786" width="100" height="94.6429"/>
	</defs>
	<clipPath id="SVGID_1_">
		<use xlink:href="#SVGID_4_"  style="overflow:visible;"/>
	</clipPath>
	<g style="clip-path:url(#SVGID_1_);">
		<path style="fill:#B0B694;" d="M73.9236,91.8064c-1.145,3.4373-4.0495,5.5186-7.6455,5.5155l-32.9884-0.0382
			c-3.3993-0.0029-6.1486-2.2661-7.1862-5.4539L5.9309,91.7536c-1.9949-0.0087-3.7154-1.1946-4.6875-2.5332
			c-1.1987-1.6498-1.5327-3.637-0.8856-5.5245c1.9084-5.5596,6.1814-9.7366,11.6681-11.8854
			c-3.4411-2.7211-4.9708-6.5548-4.4191-10.632c-4.2641-0.0205-7.5889-3.3112-7.6008-7.4618L0,50.2002
			c-0.0089-4.7407,3.948-8.1575,8.7279-7.6409c0.7544,0.0823,2.132-0.2289,2.3795-0.9891c1.0466-3.223,2.1947-6.2289,3.8884-9.1614
			c0.4592-0.7955,0.0686-1.8111-0.5636-2.3395c-3.8556-3.223-4.5295-8.3161-1.3806-11.4099l3.3516-3.2906
			c3.3755-2.9178,8.3105-2.2338,11.1015,1.1653c0.65,0.7896,1.7921,1.4002,2.7523,0.8601c2.9848-1.682,6.0471-2.7886,9.3034-3.8366
			c0.8379-0.2671,1.0586-1.682,0.9811-2.4687c-0.4295-4.3238,2.6091-8.1428,7.043-8.407l5.0186,0.0205
			c4.0077,0.0176,7.2788,4.0479,6.8732,8.8326c-0.0836,0.998,0.4264,1.9843,1.4462,2.2426c3.268,0.8307,6.1486,2.272,9.1871,3.7456
			c0.8111,0.3933,1.9798-0.4931,2.4837-1.0978c2.8329-3.3757,7.9468-4.0714,11.1164-0.9511l3.2354,3.1849
			c3.1787,3.1261,2.4839,8.1458-0.9602,10.9577c-0.7275,0.593-1.5625,1.685-1.0466,2.6243c1.6609,3.0234,2.9073,6.0411,3.948,9.3316
			c0.2386,0.7573,1.643,1.0686,2.3825,0.9863c4.78-0.5136,8.7339,2.9032,8.7279,7.6409v3.2936
			c0.0687,4.1593-3.107,7.6084-7.547,7.6877c0.483,4.2123-1.2584,7.9491-4.4073,10.6204c4.4848,1.8493,7.89,4.9402,10.3262,8.7414
			c0.7754,1.4471,1.3448,2.7329,1.5238,4.4061c0.3548,3.3082-2.0129,6.7368-5.6209,6.7543l-20.3512,0.1029H73.9236z
			 M91.1796,57.5416c2.4123,0.5577,5.1586-0.8279,5.1586-3.3141v-4.7612c-0.2386-2.3777-2.5107-3.6575-4.8186-3.4168
			c-6.9479,0.728-6.7332-7.6173-9.065-10.8814c-1.9321-2.7005-1.5207-6.0557,1.1391-8.1721
			c1.9054-1.5177,2.4929-4.1946,0.7186-5.9559l-2.6687-2.6507c-0.9363-0.9305-2.0486-1.4295-3.3963-1.3121
			c-1.0736,0.0939-2.1946,0.7603-2.9968,1.7113c-4.61,5.4775-10.222-0.6546-14.477-1.4031
			c-3.2323-0.5665-5.2421-3.2671-4.8843-6.5254c0.2802-2.5332-1.4791-4.6966-4.0941-4.6966H48.205
			c-2.6182,0-4.3804,2.1604-4.1002,4.6966c0.3609,3.2466-1.6489,5.9677-4.8782,6.5195c-4.0793,0.6957-9.9118,6.9012-14.4741,1.409
			c-1.5446-1.8581-4.2552-2.4716-6.0412-0.7162l-3.0177,2.9706c-1.7891,1.7612-1.1838,4.4412,0.7157,5.9559
			c2.4391,1.9462,3.0295,4.9873,1.4879,7.6437c-1.312,2.2604-2.3049,4.6321-3.0146,7.1389
			c-0.8439,2.9648-3.4828,4.6057-6.6198,4.2739c-2.3318-0.2466-4.4669,1.268-4.6338,3.5754
			c-0.1133,1.5529-0.0537,3.047-0.006,4.5998c0.3638,2.4714,2.7374,3.8775,5.1974,3.3052c2.9222-5.4834,9.5598-7.6027,15.291-4.9345
			c-0.3668-14.7004,11.5637-26.3129,25.9989-26.2541s26.145,11.63,25.7782,26.2512c5.7461-2.6682,12.3718-0.5461,15.2941,4.9402
			L91.1796,57.5416z M63.8925,56.5875c1.5536,5.9913-0.6441,11.9646-6.0234,15.4548c3.1609,1.0979,6.0443,2.6096,8.6057,4.867
			c2.1798-2.3718,4.7173-3.9305,7.5591-5.0959c-3.8438-2.9736-5.3286-7.5498-4.1805-11.9646l1.5952-3.5077
			c0.7068-1.5529,0.993-3.0793,0.8677-4.7584c-0.2205-2.9587-0.7216-5.7591-1.8875-8.5155
			c-5.0571-11.9587-19.4864-16.2357-30.8623-10.6348c-4.7084,2.3189-8.1762,6.1671-10.1145,10.9461
			c-1.1302,2.7886-1.5864,5.5948-1.7802,8.583c-0.2146,3.3229,1.5954,5.263,2.5704,8.2337c1.0257,4.45-0.6918,8.8473-4.2641,11.6359
			c3.0475,1.2093,5.4241,2.7975,7.5621,5.0723c2.5495-2.2514,5.4359-3.7632,8.6116-4.8727
			c-5.4777-3.4932-7.6068-9.6134-6.0175-15.5341c1.652-6.1468,6.9507-10.3854,13.4155-10.5704
			c6.8195-0.1937,12.6073,4.0596,14.3488,10.6584L63.8925,56.5875z M57.8573,67.4896c3.9598-4.1654,3.8316-10.8023-0.0925-14.8296
			c-4.1627-4.2709-11.3609-4.2593-15.5296,0c-3.9896,4.0743-4.0105,10.7934-0.0446,14.8913
			C46.3591,71.8575,53.6409,71.925,57.8573,67.4896z M19.5402,70.4837c4.3684-0.2907,7.4607-3.8807,7.3743-7.8698
			c-0.0866-4.045-3.3607-7.3738-7.5711-7.5557c-4.5593-0.1966-8.2956,3.4373-8.2419,7.7905s3.7572,7.9461,8.4417,7.635H19.5402z
			 M81.1396,70.5454c4.443-0.0734,7.6634-3.6311,7.7171-7.6966c0.0536-4.0655-2.982-7.453-7.1745-7.8229
			c-4.5295-0.3963-8.3134,3.0793-8.5161,7.3738c-0.2029,4.3327,3.2441,8.222,7.9764,8.1457H81.1396z M26.0645,88.2339
			c1.0109-3.5254,2.6659-6.2464,4.9202-8.8207c-2.1798-2.5421-4.9977-4.1361-8.2509-4.8729
			C14.5486,72.9084,6.1576,77.1,3.6677,85.0755c-0.3519,1.5793,0.8349,3.1732,2.6002,3.1702l19.7937-0.0118H26.0645z
			 M66.6091,93.773c1.6071,0,2.7284-0.9511,3.3486-1.8991c0.7484-1.1448,0.7275-2.4393,0.2207-3.7604
			c-1.8398-4.7934-5.3854-8.8266-9.9714-11.2279c-11.7246-6.1379-26.2018-0.5136-30.588,11.7973
			c-0.4384,1.2271-0.0836,2.5686,0.7068,3.5754c0.6918,0.8836,1.81,1.5264,3.1786,1.5264l33.1018-0.0118H66.6091z M93.8514,88.2663
			c1.9173-0.2113,2.9311-1.8845,2.3705-3.5371c-2.5107-7.4412-10.2457-11.4627-18.0373-10.3589
			c-3.5932,0.5929-6.7838,2.2543-9.1514,5.0312c2.3766,2.6536,3.9361,5.6036,4.947,8.8648h19.8682H93.8514z"/>
	</g>
</g>
</svg>
